/* XPM */
static char *noname[] = {
/* width height ncolors chars_per_pixel */
"64 64 92 1",
/* colors */
"  c #2B1D13",
". c #684E3B",
"X c #423026",
"o c #564133",
"O c #3F2E23",
"+ c #553F32",
"@ c #836448",
"# c #3D2C21",
"$ c #816246",
"% c #735942",
"& c #3E2E25",
"* c #816649",
"= c #503D30",
"- c #A18765",
"; c #36261D",
": c #4A372A",
"> c #5B4434",
", c #6C533E",
"< c #6B513D",
"1 c #CEB99E",
"2 c #48352B",
"3 c #47352A",
"4 c #463329",
"5 c #423125",
"6 c #412F24",
"7 c #564032",
"8 c #3C2B1F",
"9 c #BFA685",
"0 c #8A6F51",
"q c #523E31",
"w c #35251B",
"e c #4C3A2E",
"r c #473429",
"t c #2F2118",
"y c #443226",
"u c #594334",
"i c #937A59",
"p c #271B10",
"a c #876A4D",
"s c #403025",
"d c #20150C",
"f c #6B513B",
"g c #4C392D",
"h c #4B372C",
"j c #5F4839",
"k c #32241A",
"l c #5D4637",
"z c #312219",
"x c #5F4A3C",
"c c #886D4D",
"v c #574234",
"b c #3E2D22",
"n c #38271C",
"m c #624938",
"M c #614937",
"N c #765A45",
"B c #7F6147",
"V c #8C7357",
"C c #7D5F45",
"Z c #4B382B",
"A c #7B5D43",
"S c #5D4536",
"D c #715643",
"F c #2E1F15",
"G c #594335",
"H c #87684B",
"J c #6B5240",
"K c #664C3B",
"L c #AE9371",
"P c #F7F5F4",
"I c #725540",
"U c #9A7D5A",
"Y c #523F31",
"T c #3A2A20",
"R c #FFFFFF",
"E c #4F3B2E",
"W c #39281F",
"Q c #E2D4BE",
"! c #4F3D31",
"~ c #463328",
"^ c #684D3C",
"/ c #755842",
"( c #947653",
") c #503C2E",
"_ c #4F3A2D",
"` c #634B3A",
"' c #765C46",
"] c #6C503C",
"[ c #49362A",
"{ c #5E4738",
"} c #9B8260",
"| c None",
/* pixels */
"RRRRRRRRRRRRRRRRRRRRRRRPQ19L-$Hc((--1QPRRRRRRRRRRRRRRRRRRRRRRRRR",
"RRRRRRRRRRRRRRRRRRRRQ1}'xJ0L-cq.AAJJx''V1QRRRRRRRRRRRRRRRRRRRRRR",
"RRRRRRRRRRRRRRRRRP1}'xGxJxfL-$KJJJJxxJD-999QPRRRRRRRRRRRRRRRRRRR",
"RRRRRRRRRRRRRRRP1i*BJ'VD'BI/f`JJ'DxJJ'1Q999L-1RRRRRRRRRRRRRRRRRR",
"RRRRRRRRRRRRRRQ}V0HN]DJJ$>KLi]@B'D''J99-99-((CVQRRRRRRRRRRRRRRRR",
"RRRRRRRRRRRRRP*aH0(Jvx/DJGDQ9INIAGvJc9LU--LUcAxD9PRRRRRRRRRRRRRR",
"RRRRRRRRRRRRQaJNH'H^JD^K]ma190IIIjxJ$UL9L*%Ucf`J`}PRRRRRRRRRRRRR",
"RRRRRRRRRRR9'JxxDDJ!G,^K]HL111-^Im{JA(U-U(c-'MMJJjJ1RRRRRRRRRRRR",
"RRRRRRRRRP9Vi'xxDC{xx{lG^A-991L/$^l`m(0LHC*BB7>N]^Gl1RRRRRRRRRRR",
"RRRRRRRRP9191190JAxvxxx'NB9U$QLI.xxGGHH(L-J'M){I]`G^l9RRRRRRRRRR",
"RRRRRRRP9}aV-}LLB/x'JxJIA$L9111i$IND'mHc$$f)_S]^GG+KSx9RRRRRRRRR",
"RRRRRRRL$BL}L1V0(D^xx''@$@A.]IC/]$HH0JJfA>:rS`KKGoSmm{v1RRRRRRRR",
"RRRRRR1J%*9L-99a(xvxa@0H$A0(@H]K`m^]H$$NJ{xj^{^SKqoGGg2!QRRRRRRR",
"RRRRRPDfMiL'}}i'({JNiH$C/JA(UH/xlxIm]]IM]KxeIN^]!eeKGhe!'PRRRRRR",
"RRRRR-Mu7DL(c(-A(DVBAIA/AH(-(KJ/IJ/.>]]]]mIS]m].ve2mm=2ev}RRRRRR",
"RRRRQKj!f`0-0c*$/0AAI/AH(((UUUUH$AASGl>v>m7>lSmKj!!{u>yoxeQRRRRR",
"RRRP*{ul>HB''HcfA]A$$IH(H(H$HHJxxvxxGGI]=S]+ZM]GoSm2hu4xAAaPRRRR",
"RRR1qSxj^f-11LA].]HH/JI/$B'HH(Axxxxx{GKm7>_~6_]uv+mm+h2%(c%9RRRR",
"RRP'>{xjJJDjmj/].]I]@@}(JBJN@Hxxxxx{v!!!>7)_:5)>_^]f7M$c%f0GPRRR",
"RR1f`xGl`KJD/I/M.^G]@cL(NNN'NNxxKKxx!!!2+>3[)>:7M>AAf/fEG*'vLRRR",
"RRVMxGxGl{l^Im7Mmx.KH$}LcD'J''DD^xxG!!eee7>Z[:___I$(AfM:!=+GJPRR",
"RQm2l/Kx^xlI/_~7KM`/Km$L-c'D'a'*J!xeee722xH7byyy_MfLMfre=Gg>+QRR",
"R9m2lxYGlGx$MZ)>mmIIlx]*Bai*aVV*JJooG2vZ2.0iy#T8_Zff7@DJve3Yr-RR",
"Ra>2e!oKlGxA_7>Sm]]]Gm`<a-L99i}i'JYYGoGS].,>Yb#8O8>fU,v!2rXg_xPR",
"Pm>Ye!e`oxI77mSuu^]mmGxliL9P11-V00I!J*]>)oM:Yb#6wnyA_xxE!_T;52QR",
"QMMG2x!Gvx/~_77!!m^K]xxx}-LQPQ}iVV**0CM5W3&kkT;#W8by4qohh#4Ty&1R",
"9KMo3!eh+!my37=e!+q>>!x^0-9QQ100*i}iJ2[TyWzXs&W;#w887_22r6veyh-R",
"Lm>Y2e2222)~X_7!>eh_7Sl{Ji1QQ199}iiUf>Z)ntWWT&TTnnn8:[2YZsesv4VR",
"}>7Eee!og75#&E7qS!!)~hoxx*aL19VVJ(}(,Yy:nttWWkbOnnnyZ!eq_r63XyvR",
"iS)[ee!`q+5bXS777S2)Z~+vGu.*-DLVJY*c>oYwpptkW;Tn;nw8:EY[ZZy22seR",
"BM7e!eGxeqyT4_g+S=g2~_>!Gxfi%^vvS)M%fYwdd ;tkW;wW8F87)hegggysT2R",
"'^v!v{{7{qTThrsgmEg4&y~+KII0MS73>_3)y;dp  bttkkttt n~qqaiI72rX4R",
"B`!YvoYlqr:6rrXs>h32esXEM**(%)mMj8eyydpzztkkktkktFFn6S1P1U(AZ~XR",
"'S+EGvGvvmZ#5:s4+7e_4XZ>I$$U*3J'2:lW6dpwwFpk;t;ktztw6LQUAA/$My4R",
"VmSuooeoqKbb6Zyg)_)y3Z7M/cUa**%'*(%3nd nnzdF;W#kzkzwZ(c@c$AMMYeR",
"}f>++vvveK56~yyX4_)3_)MMf.-cJ*ic}L0Ybdpn8wppWW;wnwFy>$cA,f..M>JR",
"LKS+7oGo!>:y:6y&gg)~)>f)Ma*0{q!{*i(%y d86nFdwW;nww #MA@@AAf>>>}R",
"1mMMuoGGYG_:r6yX42h_7fMM('**lm{J0x`o)8p8y8nptk;zt F#I((cHAf.>>9R",
"Qf]MSGl>!v_Z~XOZ&>MfI7)7xx!X2x!x'DeoM8 8~6n ttnF pF#YLLc$Af.)yQR",
"P/MS>GGI'MgZr~yr&fAfo7[XE_!2!xx!l'GeY8dF88pz tw ppt;[(Q-%.f._2QR",
"RV.MMI911QV_yyy~sE@x[O&rhq!&2YhsOGJo[)td  ppdtF pFn~_~c19UfO_xRR",
"RLmYf(C%%V1$68b~6&{`&T42422X644&&&4Y=M&kdpddpFppp8677Z__>_~3[}RR",
"RQ]o$JH(UcAA>6T55yTT&&rhZXWW65s&6O&~!e4TwTkt  pppnb_ry&~e_q7:1RR",
"RR0Mf%C$((%fmO55yy_XTy&_=&p85~yXrXTFXee33;zkt pd n:bT63yeh:7xPRR",
"RR9If%$Cc(CDH7:OW6[~X&&2qq W6yy3r68;44M_O;wtzFppykO&[sX=_Z~y-RRR",
"RRPfMAA*$AH*-)_6T;X:r_2hg2F;bOy:~OWTXZZbW;ttzF Zf:T#y8[)76y2PRRR",
"RRR}f`cUUcBc(!v)8;W&X_g3hzdtTT#O pp&&&W;;tFt  kI(A:rr6:_h6T-RRRR",
"RRRQmIf$cC*$`!e2ynWT&42>E3 dddpd&2XTTbW;W  Fpw)IAcfZ:Or_Z[vPRRRR",
"RRRR-/N@V91A!e!g4XbT&y[e)Y24T;tk&3X&WWW;Fppt87ALAI>y::Zrr&1RRRRR",
"RRRRQH$ULUueer2e42Z;#4e2ee22ee43X&&TW;k;Ftzky>$UCfI)_+7::'RRRRRR",
"RRRRR9C>GGG!!!Y!e2erO:)+q34X4&&Xsss#ktztnWWkt&M$$LUA))7)xPRRRRRR",
"RRRRRPD)G!G!e!Yee!h79*y))4&&&&&&ys~y#88nnnzwt;T::,L(f$>eQRRRRRRR",
"RRRRRR1vo!x2!!eXevY*11LfO::24XX~[~yy#68nwwW;OkW2!XYc,y.VRRRRRRRR",
"RRRRRRRL!xeGET2Y!!YLQ-99()#T8O6yOy;FppW#nww;&&W&2&2Mf>'PRRRRRRRR",
"RRRRRRRPV!!GW>v!h!B9Q-L9K4&WX2XTz 8ynFFk#&WW#&6&s42>A'PRRRRRRRRR",
"RRRRRRRRP*e!_72se!70QQ1H=2e;;k; Fy7Y):8FtT;T;X_rrgE+SPRRRRRRRRRR",
"RRRRRRRRRPV2eYZ[X!>-9Ui6&4TtWkFF:E{*H{J8w;&&6g=q=_:xQRRRRRRRRRRR",
"RRRRRRRRRRR-x!~=+o$197qbTX&WW&k8>x9'LJ*M86y_+)+eq_'PRRRRRRRRRRRR",
"RRRRRRRRRRRRLxxxm09Qae!w8b[y63#:.x}D*a-*w#XEq4YEeLRRRRRRRRRRRRRR",
"RRRRRRRRRRRRRQDxB}@-!!G8X[~_82O)%D'VJ'UB8T4q4e!DQRRRRRRRRRRRRRRR",
"RRRRRRRRRRRRRRPVJUCUGGXW3rg)5erZUi'VVJ*My4shxD9PRRRRRRRRRRRRRRRR",
"RRRRRRRRRRRRRRRRP1V'xq!Y+eY!egrX(1-LL}cf~eV1RRRRRRRRRRRRRRRRRRRR",
"RRRRRRRRRRRRRRRRRRP9-'q+``Slvvqee}Q119NV1PRRRRRRRRRRRRRRRRRRRRRR",
"RRRRRRRRRRRRRRRRRRRRRRPQLVD>GK].JVi91QPRRRRRRRRRRRRRRRRRRRRRRRRR"
};
