P2
#	aegis - project change supervisor
#	Copyright (C) 1993, 2006-2008 Peter Miller.
#
#	This program is free software; you can redistribute it and/or modify
#	it under the terms of the GNU General Public License as published by
#	the Free Software Foundation; either version 3 of the License, or
#	(at your option) any later version.
#
#	This program is distributed in the hope that it will be useful,
#	but WITHOUT ANY WARRANTY; without even the implied warranty of
#	MERCHANTABILITY or FITNESS FOR A PARTICULAR PURPOSE.  See the
#	GNU General Public License for more details.
#
#	You should have received a copy of the GNU General Public License
#	along with this program. If not, see
#	<http://www.gnu.org/licenses/>.
#
64 64
255
255 255 255 255 255 255 255 255 255 255 255 255 255 255 255 255 255 255
255 255 255 255 255 255 223 175 112 64 64 32 32 0 0 0 16 48 80 143 175
207 255 255 255 255 255 255 255 255 255 255 255 255 255 255 255 255 255
255 255 255 255 255 255 255 255 255 255 255 255 255 255 255 255 255 255
255 255 255 255 255 255 255 255 255 255 207 96 48 12 61 97 133 169 168
192 191 190 190 153 153 129 82 58 23 64 112 175 255 255 255 255 255 255
255 255 255 255 255 255 255 255 255 255 255 255 255 255 255 255 255 255
255 255 255 255 255 255 255 255 255 255 255 255 255 255 255 223 143 48
37 86 159 195 194 193 192 191 191 190 189 189 188 188 187 187 186 186
185 149 91 34 32 128 255 255 255 255 255 255 255 255 255 255 255 255
255 255 255 255 255 255 255 255 255 255 255 255 255 255 255 255 255 255
255 255 255 255 255 239 96 32 75 148 196 195 194 193 192 191 190 190
189 189 188 188 187 187 186 186 185 185 184 184 183 182 136 78 27 112
239 255 255 255 255 255 255 255 255 255 255 255 255 255 255 255 255 255
255 255 255 255 255 255 255 255 255 255 255 255 255 255 143 32 87 173
197 195 194 193 192 191 190 190 189 189 188 188 187 187 186 186 185 185
185 184 184 183 183 182 181 180 168 66 27 143 255 255 255 255 255 255
255 255 255 255 255 255 255 255 255 255 255 255 255 255 255 255 255 255
255 255 255 255 207 48 50 162 197 196 194 193 192 191 190 190 189 189
188 188 187 187 186 186 185 185 185 184 184 184 183 183 182 182 181 181
180 178 143 44 48 239 255 255 255 255 255 255 255 255 255 255 255 255
255 255 255 255 255 255 255 255 255 255 255 255 255 159 29 125 198 196
195 193 192 191 191 190 189 189 188 188 187 187 186 173 165 146 173 184
184 184 183 183 183 182 182 182 181 180 180 179 178 176 98 16 159 255
255 255 255 255 255 255 255 255 255 255 255 255 255 255 255 255 255 255
255 255 255 239 128 38 150 198 196 194 193 192 191 190 189 189 188 188
187 187 186 186 167 183 186 163 111 136 184 183 183 183 182 182 182 181
181 180 180 179 178 177 175 151 21 128 255 255 255 255 255 255 255 255
255 255 255 255 255 255 255 255 255 255 255 255 239 80 38 187 197 195
194 193 192 191 190 189 189 188 187 187 187 186 186 182 171 200 198 176
133 56 172 183 182 182 182 181 181 181 180 180 179 179 178 177 176 175
161 53 96 255 255 255 255 255 255 255 255 255 255 255 255 255 255 255
255 255 255 239 64 75 199 197 195 194 192 191 190 190 189 188 188 187
187 186 186 186 185 170 162 190 188 165 123 51 126 182 182 182 181 181
181 180 180 180 179 179 178 177 177 175 174 171 52 64 239 255 255 255
255 255 255 255 255 255 255 255 255 255 255 255 255 96 63 199 197 195
193 192 191 190 189 189 188 188 187 187 186 186 185 185 185 177 130 159
159 134 93 26 114 182 182 181 181 181 180 180 180 179 179 179 178 177
177 176 175 173 159 62 96 255 255 255 255 255 255 255 255 255 255 255
255 255 255 255 96 50 199 197 195 193 192 191 190 189 189 188 187 187
186 186 186 185 185 185 184 184 122 102 106 84 40 36 170 182 181 181
181 180 180 180 179 179 179 178 178 177 177 176 175 174 172 168 41 128
255 255 255 255 255 255 255 255 255 255 255 255 255 159 38 187 197 195
193 192 191 190 189 188 188 187 187 186 186 186 185 185 184 184 184 183
183 127 44 35 68 148 182 181 181 181 180 180 180 179 179 179 178 178
178 177 177 176 175 174 172 170 156 20 159 255 255 255 255 255 255 255
255 255 255 255 223 13 175 197 195 193 192 191 190 189 188 188 187 187
186 186 185 185 185 184 184 184 183 183 183 183 182 182 182 181 181 181
181 180 180 180 180 179 179 179 178 178 177 177 176 176 175 174 173 171
168 123 42 207 255 255 255 255 255 255 255 255 255 255 64 138 198 195
193 192 191 190 184 175 181 187 187 186 186 185 185 185 184 184 184 183
183 183 182 182 182 182 181 181 181 181 180 180 180 180 179 179 179 178
178 178 177 168 164 176 175 174 173 172 170 166 81 64 239 255 255 255
255 255 255 255 255 128 50 198 196 194 192 191 190 174 166 159 131 136
186 186 185 185 185 184 184 184 183 183 183 182 182 182 182 181 181 181
181 180 180 180 180 179 179 179 178 178 178 177 168 167 160 131 119 174
173 172 170 168 164 40 175 255 255 255 255 255 255 255 255 16 174 196
194 193 191 190 176 185 199 189 155 99 146 185 185 185 184 184 184 183
183 183 182 182 182 182 181 181 181 181 180 180 180 180 179 179 179 178
178 178 178 168 182 200 188 156 97 116 173 172 171 169 166 131 26 255
255 255 255 255 255 255 112 62 197 195 193 191 190 189 161 189 198 185
153 100 75 185 185 184 184 184 183 183 183 182 182 182 182 181 181 181
181 180 180 180 180 179 179 179 179 178 178 178 177 161 189 199 185 154
102 36 173 172 171 169 167 163 49 128 255 255 255 255 255 223 12 186
196 193 192 191 190 189 147 169 176 164 133 79 32 185 184 184 183 183
183 183 182 182 182 182 181 181 181 181 180 180 180 180 179 179 179 179
178 178 178 177 177 135 168 177 163 132 79 7 173 172 171 170 168 164
139 0 239 255 255 255 255 128 74 197 194 192 191 190 189 188 149 118
135 123 92 33 81 184 184 183 183 183 183 182 182 182 182 181 181 181
181 180 180 180 180 179 179 179 179 178 178 178 177 177 177 155 119 134
122 91 34 11 173 172 171 170 168 165 161 48 143 255 255 255 255 48 173
195 193 191 190 189 188 188 187 120 63 55 24 36 161 184 183 183 183 183
182 182 182 182 181 181 181 181 180 180 180 180 179 179 179 179 178 178
178 178 177 177 177 176 119 58 54 25 12 130 173 172 171 170 168 166 162
117 32 255 255 255 175 50 196 194 192 191 189 189 188 187 186 186 151
116 138 184 184 183 183 183 183 182 182 182 181 181 181 181 181 180 180
180 180 179 179 179 179 178 178 178 178 177 177 177 176 176 176 164 109
120 163 173 173 172 171 170 169 167 163 158 29 159 255 255 112 123 195
193 191 190 189 188 187 187 186 186 185 185 184 184 184 183 183 183 182
182 182 181 181 181 181 181 180 180 180 180 179 179 179 179 178 178 178
178 177 177 177 177 176 176 176 175 175 174 174 173 173 172 171 170 169
167 164 159 76 96 255 255 32 147 194 192 190 189 188 187 187 186 186
185 185 184 184 184 183 183 183 182 182 182 181 181 181 181 181 180 180
180 180 179 179 179 179 178 178 178 178 177 177 177 177 176 176 176 175
175 175 174 174 173 172 172 171 170 169 167 164 160 125 32 255 239 25
195 193 191 190 189 188 187 186 186 185 185 184 184 184 183 183 183 182
182 182 181 181 181 181 180 180 180 180 180 179 179 179 179 178 178 178
178 177 177 177 177 176 176 176 175 175 175 174 174 173 173 172 172 171
170 168 167 165 161 145 18 239 175 73 194 192 190 189 188 187 187 186
185 185 184 184 184 183 183 183 182 182 182 181 181 181 181 180 180 180
180 180 179 179 179 179 178 178 178 178 177 177 177 177 176 176 176 176
175 175 175 174 174 173 173 172 171 171 170 168 167 165 162 155 55 175
128 110 193 191 190 189 188 187 186 186 185 185 184 184 183 183 183 182
182 182 181 181 181 181 180 180 180 180 180 179 179 179 179 178 178 178
178 178 177 177 177 177 176 176 176 175 175 175 174 174 173 173 172 172
171 170 169 168 167 165 162 156 74 143 112 146 192 190 189 188 187 186
186 185 185 184 184 183 183 183 182 182 182 182 181 181 181 180 180 180
180 180 179 179 179 179 178 178 178 178 178 177 177 177 177 176 176 176
175 175 175 174 174 174 173 173 172 172 171 170 169 168 167 165 162 157
94 64 16 145 191 190 188 188 187 186 185 185 184 184 183 183 183 182
182 182 182 181 181 181 180 180 180 180 180 179 179 179 179 171 174 178
178 178 177 177 177 177 176 176 176 176 175 175 175 174 174 173 173 172
172 171 171 170 169 168 166 164 162 157 130 64 32 156 191 189 188 187
186 186 185 184 184 184 183 183 182 182 182 182 181 181 181 181 180 180
180 180 179 179 179 172 166 168 146 123 163 177 177 177 177 176 176 176
176 175 175 175 174 174 174 173 173 172 172 171 170 170 169 168 166 164
161 157 139 0 32 192 190 189 188 187 186 185 185 184 184 183 183 183
182 182 182 181 181 181 181 180 180 180 180 179 179 179 179 166 197 197
173 131 67 177 177 177 176 176 176 176 175 175 175 174 174 174 173 173
172 172 171 171 170 169 168 167 166 164 161 157 139 0 0 191 189 188 187
186 186 185 184 184 183 183 183 182 182 182 181 181 181 181 180 180 180
180 179 179 179 179 163 167 197 194 172 131 58 122 177 176 176 176 176
175 175 175 175 174 174 173 173 173 172 172 171 171 170 169 168 167 165
164 161 156 148 0 0 190 189 188 187 186 185 185 184 184 183 183 182 182
182 181 181 181 181 180 180 180 180 179 179 179 179 178 170 145 174 172
150 107 37 110 176 176 176 176 175 175 175 175 174 174 174 173 173 172
172 171 171 170 170 169 168 167 165 163 160 156 147 0 0 178 188 187 186
185 185 184 184 169 168 182 182 182 181 181 181 181 180 180 180 180 179
179 179 179 178 178 178 107 130 130 107 65 7 143 176 176 176 175 175
175 175 174 174 174 173 173 173 172 172 171 171 164 162 168 167 166 165
163 160 155 137 0 32 153 188 187 186 185 184 181 166 171 155 115 139
181 181 181 181 180 180 180 180 179 179 179 179 178 178 178 178 162 67
57 38 10 55 176 176 176 175 175 175 175 174 174 174 173 173 173 172 172
171 167 168 169 142 109 148 166 164 162 159 154 127 0 48 141 187 186
185 185 184 168 195 199 181 140 75 181 181 181 180 180 180 180 179 179
179 179 178 178 178 178 178 177 166 111 121 132 176 176 176 175 175 175
175 174 174 174 174 173 173 172 172 172 171 168 199 195 169 122 73 165
164 161 158 153 117 48 64 129 187 186 185 184 184 156 195 195 176 139
74 126 181 180 180 180 180 179 179 179 179 178 178 178 178 178 177 177
177 177 176 176 176 176 175 175 175 175 174 174 174 174 173 173 173 172
172 171 162 177 197 191 166 120 46 113 163 161 157 151 89 80 143 93 186
185 185 184 183 136 173 172 153 116 50 102 180 180 180 180 179 179 179
179 178 178 178 178 178 177 177 177 177 176 176 176 176 175 175 175 175
174 174 174 174 173 173 173 172 172 171 171 151 154 176 170 142 98 25
92 162 160 156 149 70 128 159 70 186 185 184 184 183 118 125 131 112 73
12 124 180 180 180 179 179 179 179 178 178 178 178 177 177 177 177 177
176 176 176 176 175 175 175 175 174 174 174 174 173 173 173 172 172 171
171 171 164 104 131 128 102 53 5 112 161 159 154 147 35 175 207 23 185
184 184 183 183 182 75 56 39 10 68 180 180 180 179 179 179 179 178 178
178 178 177 177 177 177 177 176 176 176 176 175 175 175 175 174 174 174
174 173 173 173 172 172 172 171 171 170 170 138 67 57 32 4 41 163 160
157 153 143 0 207 255 32 149 184 183 183 182 182 181 136 102 124 180
180 180 179 179 179 179 178 178 178 178 177 177 177 177 177 176 176 176
176 175 175 175 175 174 174 174 174 173 173 173 172 172 172 171 171 170
170 169 169 168 125 83 113 163 162 159 156 150 115 32 255 255 128 91
183 183 182 182 182 181 181 180 180 180 180 179 179 179 179 178 178 178
178 177 177 177 177 176 176 176 176 176 175 175 175 175 174 174 174 174
173 173 173 172 172 172 171 171 170 170 169 169 168 167 166 165 164 163
161 158 154 147 69 128 255 255 223 34 182 182 182 182 181 181 180 180
180 180 179 179 179 178 178 178 178 178 177 177 177 177 176 176 176 176
176 175 175 175 175 174 174 174 174 173 173 173 172 172 172 171 171 170
170 169 169 168 168 167 166 165 163 162 160 156 152 143 17 223 255 255
255 48 124 181 181 181 181 180 180 180 179 179 179 179 178 178 178 178
177 177 177 177 177 176 176 176 176 175 175 175 175 175 174 174 174 174
173 173 173 172 172 172 171 171 171 170 170 169 168 168 167 166 165 164
162 161 158 154 149 113 16 255 255 255 255 143 67 180 181 181 180 180
180 179 179 179 179 178 178 178 178 177 177 177 177 177 176 176 176 176
175 175 175 175 175 174 174 174 174 173 173 173 172 172 172 171 171 171
170 170 169 168 168 167 166 165 164 163 161 159 156 152 144 51 143 255
255 255 255 255 0 157 180 180 180 179 179 179 179 178 178 178 178 178
177 177 177 177 176 176 176 176 176 175 175 175 175 174 174 174 174 173
173 173 173 172 172 172 171 171 171 170 170 169 169 168 167 167 166 165
163 162 160 158 154 149 121 16 255 255 255 255 255 255 128 66 178 179
179 179 179 179 178 178 178 178 177 177 177 177 177 176 176 176 176 175
175 175 175 175 174 174 174 174 173 173 173 173 172 172 172 171 171 170
170 170 169 169 168 167 167 166 165 164 162 161 158 156 151 144 51 96
255 255 255 255 255 255 239 32 143 178 178 178 178 178 178 178 177 177
177 177 177 176 176 176 176 176 175 175 175 175 174 174 174 174 173 173
173 173 172 172 172 171 171 171 170 170 170 169 169 168 167 167 166 165
164 163 161 159 157 153 147 121 24 239 255 255 255 255 255 255 255 159
44 176 177 177 177 177 177 177 177 177 177 176 176 176 176 176 175 175
175 175 175 174 174 174 174 173 173 173 173 172 172 172 171 171 171 170
170 169 169 169 168 167 167 166 165 164 163 161 160 157 154 150 141 33
128 255 255 255 255 255 255 255 255 255 48 98 175 176 177 177 177 177
176 176 176 176 176 176 175 169 158 143 135 152 174 174 174 173 173 173
173 172 172 172 172 171 171 171 162 164 157 135 129 168 167 167 166 165
164 163 162 160 158 155 151 144 77 80 255 255 255 255 255 255 255 255
255 255 223 0 151 175 175 176 176 176 176 176 176 175 175 175 170 188
197 180 145 66 164 173 173 173 173 172 172 172 172 171 171 171 170 167
171 196 191 161 108 123 167 166 165 164 163 162 160 158 155 152 146 128
16 207 255 255 255 255 255 255 255 255 255 255 255 159 21 161 174 175
175 175 175 175 175 175 175 175 165 194 199 181 147 85 104 173 173 172
172 172 172 171 171 171 171 170 170 161 184 200 191 164 119 33 155 165
164 163 162 160 158 156 152 148 121 17 159 255 255 255 255 255 255 255
255 255 255 255 255 255 112 63 171 173 174 174 174 174 174 174 174 174
132 176 180 162 126 70 67 172 172 172 172 171 171 171 171 170 170 170
169 155 165 181 172 146 99 21 123 164 163 161 160 158 156 153 147 139
33 128 255 255 255 255 255 255 255 255 255 255 255 255 255 255 255 80
53 170 172 173 173 173 173 173 173 173 130 136 140 125 89 29 64 172 172
171 171 171 171 170 170 170 169 169 168 148 119 144 136 107 59 2 133
162 161 160 158 155 152 148 140 42 80 239 255 255 255 255 255 255 255
255 255 255 255 255 255 255 255 255 64 62 158 170 171 172 172 172 172
172 156 104 78 62 25 1 150 171 171 171 170 170 170 170 169 169 168 168
168 167 124 70 69 42 7 30 162 161 159 157 155 152 147 131 42 80 239 255
255 255 255 255 255 255 255 255 255 255 255 255 255 255 255 255 255 64
41 156 169 170 171 171 171 171 171 160 86 66 75 128 171 170 170 170 170
169 169 169 168 168 168 167 167 166 165 134 52 41 71 151 160 159 157
154 151 146 114 42 64 255 255 255 255 255 255 255 255 255 255 255 255
255 255 255 255 255 255 255 255 255 112 31 133 167 168 169 169 170 170
170 170 170 170 170 170 169 169 169 169 168 168 168 167 167 167 166 165
165 164 163 163 162 161 159 158 156 153 150 144 112 16 128 255 255 255
255 255 255 255 255 255 255 255 255 255 255 255 255 255 255 255 255 255
255 255 143 16 91 164 166 167 168 168 168 169 169 169 168 168 168 168
168 167 167 167 167 166 166 165 165 164 163 163 162 161 159 158 156 154
151 148 141 76 40 143 255 255 255 255 255 255 255 255 255 255 255 255
255 255 255 255 255 255 255 255 255 255 255 255 255 223 48 40 131 163
164 165 166 167 167 167 167 167 167 167 166 166 166 165 165 165 164 164
163 162 161 160 159 158 156 154 152 148 143 104 42 64 239 255 255 255
255 255 255 255 255 255 255 255 255 255 255 255 255 255 255 255 255 255
255 255 255 255 255 255 255 175 0 69 129 161 163 164 164 164 165 165
165 165 164 164 164 164 163 163 162 161 160 160 159 157 156 154 152 149
144 130 51 16 143 255 255 255 255 255 255 255 255 255 255 255 255 255
255 255 255 255 255 255 255 255 255 255 255 255 255 255 255 255 255 255
223 128 10 49 127 157 159 160 161 161 162 162 162 161 161 161 160 160
159 158 157 156 154 153 150 147 143 113 51 16 128 223 255 255 255 255
255 255 255 255 255 255 255 255 255 255 255 255 255 255 255 255 255 255
255 255 255 255 255 255 255 255 255 255 255 255 239 143 32 29 76 116
154 155 156 157 157 157 157 156 156 155 154 153 151 150 147 144 106 77
17 16 128 255 255 255 255 255 255 255 255 255 255 255 255 255 255 255
255 255 255 255 255 255 255 255 255 255 255 255 255 255 255 255 255 255
255 255 255 255 255 255 255 223 112 32 19 55 74 93 112 139 148 148 147
146 136 125 98 71 52 17 32 112 191 255 255 255 255 255 255 255 255 255
255 255 255 255 255 255 255 255 255 255 255 255 255 255 255 255 255 255
255 255 255 255 255 255 255 255 255 255 255 255 255 255 255 255 255 255
207 159 112 80 48 32 48 0 0 0 32 48 64 128 175 223 255 255 255 255 255
255 255 255 255 255 255 255 255 255 255 255 255 255 255 255 255 255 255
255
